<svg width="72" height="83" viewBox="0 0 72 83" fill="none" xmlns="http://www.w3.org/2000/svg">
<path d="M62.8915 31.3555C62.9098 30.9062 62.9191 30.4543 62.9191 30C62.9191 13.4315 50.6069 0 35.4191 0C20.2312 0 7.91907 13.4315 7.91907 30C7.91907 30.4543 7.92832 30.9062 7.94664 31.3555H21.2626C21.1771 30.6567 21.1329 29.9437 21.1329 29.2196C21.1329 20.3254 27.7943 13.1152 36.0115 13.1152C44.2288 13.1152 50.8902 20.3254 50.8902 29.2196C50.8902 29.9437 50.846 30.6567 50.7605 31.3555H62.8915Z" fill="#2E3E35"/>
<rect y="28.3555" width="71.5318" height="54.078" rx="3.71965" fill="#2E3E35"/>
<path d="M40.1348 55.6113L39.4119 56.2063L39.5543 57.1316C39.579 57.2923 39.5919 57.4577 39.5919 57.6272V63.9914C39.5919 65.7693 38.1507 67.2105 36.3728 67.2105H35.5404C33.7625 67.2105 32.3212 65.7693 32.3212 63.9914V57.6272C32.3212 57.4993 32.3286 57.3739 32.3428 57.2511L32.4501 56.3245L31.7099 55.7567C30.0911 54.515 29.0525 52.5663 29.0525 50.3743C29.0525 46.6307 32.0873 43.5959 35.8309 43.5959C39.5745 43.5959 42.6093 46.6307 42.6093 50.3743C42.6093 52.4828 41.6486 54.3655 40.1348 55.6113Z" stroke="#F2F2F2" stroke-width="3.29"/>
</svg>
